<?xml version="1.0" standalone="no"?>
<!DOCTYPE svg PUBLIC "-//W3C//DTD SVG 20010904//EN"
 "http://www.w3.org/TR/2001/REC-SVG-20010904/DTD/svg10.dtd">
<svg version="1.0" xmlns="http://www.w3.org/2000/svg"
 width="480.000000pt" height="480.000000pt" viewBox="0 0 480.000000 480.000000"
 preserveAspectRatio="xMidYMid meet">
<metadata>
Created by potrace 1.14, written by Peter Selinger 2001-2017
</metadata>
<g transform="translate(0.000000,480.000000) scale(0.100000,-0.100000)"
fill="#000000" stroke="none">
<path d="M2293 4382 c-21 -3 -28 -13 -24 -34 0 -5 -3 -8 -9 -8 -5 0 -10 6 -10
14 0 22 -21 31 -31 14 -6 -11 -24 -16 -60 -15 -33 0 -54 -5 -60 -14 -6 -11
-11 -11 -21 -1 -6 6 -18 12 -26 12 -12 0 -12 -3 -2 -15 6 -8 15 -14 18 -13 17
3 40 -15 35 -28 -7 -20 -23 -18 -23 4 0 14 -2 15 -10 2 -5 -8 -10 -11 -10 -6
0 5 -6 3 -14 -3 -10 -8 -16 -9 -21 -1 -3 5 -1 10 5 10 18 0 -7 37 -30 43 -13
3 -18 1 -13 -6 4 -7 0 -8 -13 -2 -28 13 -75 10 -84 -5 -4 -7 -13 -9 -19 -6 -6
4 -11 0 -11 -9 0 -11 -5 -15 -15 -11 -9 3 -15 0 -15 -10 0 -11 -6 -14 -16 -10
-23 9 -114 -59 -154 -115 -19 -27 -41 -49 -49 -49 -8 0 -11 -6 -7 -16 3 -9 6
-18 6 -20 0 -2 9 -4 20 -4 11 0 20 -7 20 -15 0 -8 -5 -15 -11 -15 -5 0 -7 -5
-4 -10 4 -7 12 -7 25 0 30 16 47 11 21 -6 -15 -11 -19 -19 -12 -24 6 -3 13
-17 16 -30 6 -31 10 -33 28 -16 8 8 24 14 35 11 10 -2 41 -5 68 -6 35 -2 56
-9 73 -26 23 -23 52 -26 79 -10 7 5 10 13 7 18 -4 5 3 9 14 9 12 0 21 7 21 15
0 9 9 15 24 15 13 0 29 7 36 15 11 13 10 14 -3 9 -9 -3 -27 3 -42 14 -15 12
-34 18 -45 15 -15 -4 -19 -2 -15 10 4 9 14 13 26 10 15 -4 19 0 19 18 0 14 9
30 23 38 20 13 21 13 8 -3 -21 -25 -8 -29 19 -6 27 24 40 25 40 5 0 -8 7 -15
16 -15 12 0 15 -9 12 -37 -2 -21 -7 -42 -13 -46 -6 -5 -4 -7 5 -4 8 2 14 12
14 21 -2 18 11 22 21 6 3 -5 13 -10 21 -10 10 0 6 8 -12 23 l-27 24 28 37 c15
20 30 34 33 31 3 -2 11 0 19 6 9 8 13 8 13 1 0 -7 13 -9 35 -5 24 4 35 2 35
-6 0 -7 -4 -9 -10 -6 -5 3 -10 1 -10 -4 0 -6 5 -11 11 -11 7 0 18 -8 25 -17
12 -16 13 -16 8 7 -2 14 -2 19 2 13 3 -7 10 -13 15 -13 6 0 7 5 4 10 -3 6 -1
10 6 10 10 0 10 3 1 12 -12 12 1 48 19 48 6 0 7 -4 4 -10 -3 -6 1 -7 9 -4 9 3
16 1 16 -5 0 -12 66 -42 89 -40 9 1 18 0 21 -1 23 -8 40 -6 40 6 0 8 4 14 10
14 5 0 7 -6 4 -14 -3 -9 10 -17 43 -26 26 -8 54 -20 61 -27 17 -16 42 -17 42
-1 0 7 11 0 25 -15 28 -29 36 -33 33 -16 -2 6 3 14 10 16 6 3 12 0 12 -6 0 -7
10 -16 23 -21 22 -9 22 -9 -3 -10 -20 0 -22 -2 -10 -10 8 -5 11 -10 5 -10 -11
0 16 -20 28 -20 5 0 5 5 2 10 -9 15 4 12 21 -5 28 -27 -62 -16 -92 12 -29 26
-39 30 -27 9 10 -18 117 -96 132 -96 6 0 27 -9 46 -20 34 -19 62 -19 50 0 -3
4 4 6 15 3 13 -3 20 -13 19 -27 -1 -17 -2 -17 -6 -3 -2 9 -9 17 -14 17 -6 0
-7 -4 -4 -10 3 -5 1 -10 -5 -10 -7 0 -10 -7 -6 -15 10 -26 -10 -16 -23 11 -6
15 -15 24 -18 20 -4 -3 -1 -12 5 -18 20 -20 13 -30 -15 -24 l-28 5 25 -12 c49
-24 52 -27 38 -45 -10 -12 -10 -14 0 -8 6 4 12 2 12 -3 0 -6 7 -11 15 -11 8 0
15 -9 15 -21 0 -11 -4 -18 -9 -15 -5 3 -12 -1 -15 -10 -3 -8 -10 -13 -14 -10
-13 8 -7 -33 7 -47 10 -10 12 -6 9 18 -2 24 1 30 14 29 10 -1 15 2 12 7 -3 5
0 9 6 9 7 0 9 7 5 18 -5 13 -3 14 5 6 9 -9 9 -17 1 -32 -15 -27 -14 -35 5 -58
15 -18 15 -18 4 3 -10 22 -9 22 17 12 l28 -10 -24 25 c-27 28 -19 50 15 43 13
-2 21 0 18 4 -3 5 -11 9 -18 9 -8 0 -20 7 -27 17 -13 15 -10 16 29 11 23 -4
42 -5 42 -3 0 2 -17 14 -37 27 -86 54 -81 50 -53 44 14 -3 32 -1 40 4 12 7 9
14 -14 35 -23 21 -26 29 -16 35 10 6 6 11 -14 16 -18 4 -31 2 -36 -5 -5 -9
-21 -11 -54 -6 -35 6 -45 10 -37 18 8 8 17 8 31 -1 27 -16 25 -8 -2 19 l-23
21 25 -7 c14 -4 29 -14 35 -21 7 -9 21 -11 44 -6 l33 7 -26 14 c-23 13 -31 29
-27 54 0 4 -4 7 -10 7 -5 0 -7 5 -4 10 3 6 1 10 -5 10 -6 0 -15 11 -20 24 -9
24 -89 96 -107 96 -20 0 -63 26 -63 38 0 6 -4 12 -9 12 -4 0 -24 13 -42 30
-30 26 -35 27 -41 12 -6 -16 -7 -16 -7 1 -1 11 -7 17 -18 15 -10 -2 -17 3 -15
10 1 6 -4 12 -11 12 -7 0 -19 6 -25 12 -7 7 -27 13 -44 14 -17 1 -34 8 -39 15
-5 9 -31 14 -83 14 -42 0 -76 4 -76 9 0 5 -3 6 -7 3 -3 -4 -11 -1 -17 6 -6 7
-21 11 -33 9z m207 -52 c0 -5 -5 -10 -11 -10 -5 0 -7 5 -4 10 3 6 8 10 11 10
2 0 4 -4 4 -10z m-504 -45 c10 -8 14 -15 7 -15 -6 0 -15 5 -18 10 -4 6 -11 8
-16 5 -5 -4 -9 -1 -9 4 0 15 13 14 36 -4z m-38 -21 c14 -15 14 -16 -3 -13 -10
2 -20 10 -23 17 -5 17 6 15 26 -4z m112 -20 c0 -8 -6 -14 -14 -14 -8 0 -17 -7
-20 -16 -5 -13 -9 -14 -21 -4 -21 17 -8 37 23 34 15 -2 19 -1 9 2 -9 3 -15 9
-12 14 8 13 35 0 35 -16z m80 -24 c6 0 10 -10 10 -22 -1 -23 -1 -23 -15 -3 -8
11 -19 25 -25 32 -5 7 -10 20 -10 30 1 13 5 11 16 -9 8 -16 19 -28 24 -28z
m-220 -72 c0 -6 -6 -5 -15 2 -8 7 -15 14 -15 16 0 2 7 1 15 -2 8 -4 15 -11 15
-16z m237 16 c-3 -3 -12 -4 -19 -1 -8 3 -5 6 6 6 11 1 17 -2 13 -5z m618 -44
c3 -6 -1 -7 -9 -4 -18 7 -21 14 -7 14 6 0 13 -4 16 -10z m40 -30 c-3 -5 -12
-7 -20 -3 -21 7 -19 13 6 13 11 0 18 -4 14 -10z m56 -67 c3 1 1 -2 -3 -8 -5
-5 -15 -2 -26 9 -16 18 -16 18 4 8 12 -6 23 -10 25 -9z m-1036 -13 c3 -5 -3
-10 -15 -10 -12 0 -18 5 -15 10 3 6 10 10 15 10 5 0 12 -4 15 -10z m1060 -10
c3 -5 1 -10 -4 -10 -6 0 -11 5 -11 10 0 6 2 10 4 10 3 0 8 -4 11 -10z"/>
<path d="M2168 4373 c7 -3 16 -2 19 1 4 3 -2 6 -13 5 -11 0 -14 -3 -6 -6z"/>
<path d="M2216 4114 c-9 -23 -4 -24 17 -2 13 14 14 18 3 18 -8 0 -17 -7 -20
-16z"/>
<path d="M2170 4060 c0 -5 5 -10 10 -10 6 0 10 5 10 10 0 6 -4 10 -10 10 -5 0
-10 -4 -10 -10z"/>
<path d="M2205 4060 c-3 -5 -2 -10 4 -10 5 0 13 5 16 10 3 6 2 10 -4 10 -5 0
-13 -4 -16 -10z"/>
<path d="M2710 4060 c0 -5 5 -10 11 -10 5 0 7 5 4 10 -3 6 -8 10 -11 10 -2 0
-4 -4 -4 -10z"/>
<path d="M1987 3928 c-16 -12 -15 -13 8 -13 14 0 25 4 25 8 0 5 5 5 10 2 6 -3
10 -1 10 4 0 15 -32 14 -53 -1z"/>
<path d="M4388 3733 c79 -2 205 -2 280 0 75 1 11 3 -143 3 -154 0 -216 -2
-137 -3z"/>
<path d="M2886 3707 c3 -10 9 -15 12 -12 3 3 0 11 -7 18 -10 9 -11 8 -5 -6z"/>
<path d="M2911 3674 c0 -11 3 -14 6 -6 3 7 2 16 -1 19 -3 4 -6 -2 -5 -13z"/>
<path d="M2984 3635 c2 -13 9 -31 15 -39 9 -11 9 -15 -1 -19 -9 -4 -10 -6 -1
-6 13 -1 6 -31 -6 -31 -4 0 -13 12 -20 26 -6 15 -14 24 -18 21 -3 -4 2 -18 12
-33 10 -15 18 -39 19 -53 3 -31 25 -111 31 -111 7 0 -2 58 -14 99 -14 45 -7
51 9 9 21 -56 33 -79 39 -71 3 5 15 13 27 20 17 9 25 8 46 -10 14 -12 27 -29
30 -37 3 -9 7 -10 11 -3 4 6 -5 23 -18 37 -14 15 -25 36 -25 47 0 10 -4 19 -8
19 -11 0 -36 51 -33 68 2 15 -15 16 -25 0 -5 -7 -3 -8 6 -3 9 5 11 4 6 -3 -10
-17 -26 -15 -26 4 0 8 -4 12 -10 9 -5 -3 -10 0 -10 8 0 8 -7 20 -15 27 -9 7
-14 19 -11 26 3 7 1 16 -4 19 -4 3 -7 -6 -6 -20z m79 -142 c-6 -14 -43 1 -43
17 0 4 -3 17 -7 27 -6 14 -1 13 24 -7 16 -14 28 -31 26 -37z"/>
<path d="M2922 3630 c0 -14 2 -19 5 -12 2 6 2 18 0 25 -3 6 -5 1 -5 -13z"/>
<path d="M4129 3640 c-27 -8 -128 -20 -207 -25 -96 -6 -113 -61 -162 -520 -12
-104 -24 -259 -27 -342 -3 -84 -10 -153 -15 -153 -5 0 -13 11 -18 25 -23 60
-143 132 -213 127 -9 0 -15 3 -12 7 9 15 -157 84 -204 85 -43 1 -45 0 -52 -32
-11 -54 -46 -84 -93 -80 -25 2 -41 -2 -43 -9 -3 -9 7 -13 31 -13 32 0 36 -3
36 -27 0 -14 -14 -55 -31 -90 -24 -49 -30 -73 -26 -99 8 -46 -36 -170 -119
-339 -74 -150 -103 -192 -161 -235 -24 -16 -43 -33 -43 -36 0 -7 18 4 63 39
20 16 37 26 37 23 0 -13 -155 -241 -210 -309 -92 -114 -159 -185 -156 -162 3
17 -2 20 -37 22 -48 3 -77 -22 -48 -44 21 -16 2 -48 -28 -47 -11 0 -21 -3 -21
-8 0 -4 12 -9 28 -9 20 -1 22 -3 8 -6 -11 -3 -26 -11 -34 -19 -19 -19 -35 -17
-28 3 4 10 4 14 0 11 -3 -4 -22 9 -42 28 -27 26 -33 37 -23 43 9 6 4 15 -21
32 -50 36 -70 62 -53 72 8 4 12 14 9 22 -4 8 -1 15 5 15 22 0 -21 45 -44 46
-56 4 -98 64 -151 217 l-23 68 29 -21 c16 -12 32 -25 35 -30 4 -6 17 -10 31
-10 14 0 22 -4 19 -10 -3 -5 0 -7 9 -4 35 13 110 -73 104 -120 -2 -16 9 -36
35 -65 20 -22 38 -49 38 -59 1 -9 3 -32 5 -50 2 -34 0 -35 -54 -15 -8 4 -10 0
-6 -10 3 -9 12 -13 21 -10 10 4 14 2 10 -3 -8 -13 50 -47 67 -41 7 3 19 1 26
-3 13 -8 40 10 40 27 0 5 16 17 35 26 20 9 35 23 34 30 -3 26 2 37 16 37 21 0
19 26 -2 35 -17 7 -16 8 2 15 17 7 17 9 3 9 -10 1 -18 5 -18 10 0 11 67 65
101 81 13 6 34 27 45 45 l22 33 -36 -21 c-51 -30 -37 0 19 40 24 18 52 39 62
48 9 8 17 13 17 10 0 -10 55 30 73 52 10 13 24 23 32 23 16 0 98 108 131 172
26 51 88 228 82 234 -2 1 -24 -38 -48 -88 -44 -91 -134 -198 -165 -198 -7 0
-16 -6 -18 -12 -4 -10 -8 -9 -16 2 -6 8 -12 19 -14 23 -1 5 -10 5 -20 2 -9 -4
-14 -11 -11 -16 3 -5 0 -9 -6 -9 -10 0 -9 8 4 66 6 31 27 65 58 96 14 14 24
29 21 32 -3 3 -15 -4 -27 -17 -32 -34 -85 -69 -95 -62 -5 3 -12 -3 -16 -14 -5
-16 -25 -32 -46 -35 -21 -3 -79 -43 -79 -54 0 -7 -4 -11 -9 -7 -5 3 -17 -2
-25 -11 -11 -10 -23 -13 -34 -8 -27 11 -42 13 -42 4 0 -11 -56 -31 -100 -36
-19 -3 -41 -7 -49 -9 -11 -5 -12 -3 -1 10 16 19 8 19 -72 1 -67 -16 -180 -16
-212 -1 -16 7 -18 5 -13 -14 4 -17 0 -24 -16 -30 -18 -7 -30 -1 -61 30 -22 22
-43 39 -47 39 -4 0 -21 14 -38 31 -17 17 -35 28 -41 24 -6 -4 -7 1 -3 11 4 12
3 15 -6 10 -15 -10 -37 9 -68 57 -23 37 -27 39 -61 32 -20 -3 -86 -27 -145
-52 -123 -51 -197 -111 -255 -203 -19 -30 -45 -66 -57 -80 -47 -52 -145 -228
-175 -315 -33 -93 -142 -309 -217 -429 -93 -148 -128 -219 -120 -240 4 -9 33
-28 64 -42 32 -14 76 -37 98 -51 22 -13 94 -55 161 -92 66 -37 165 -103 220
-147 54 -44 133 -100 174 -125 41 -24 104 -67 140 -96 36 -29 110 -83 165
-119 155 -105 260 -196 251 -219 -5 -13 81 -15 696 -15 l701 0 -46 31 c-85 56
-135 169 -124 278 11 99 53 151 124 151 21 0 56 5 78 12 22 6 46 10 54 9 9 -2
12 3 7 14 -5 14 0 15 39 9 25 -3 45 -3 45 1 0 4 -17 22 -37 40 -30 26 -49 34
-96 40 -56 6 -58 7 -39 21 44 30 108 46 192 48 128 2 173 -30 135 -96 -10 -16
-13 -18 -35 -18 -5 0 -10 -7 -10 -15 0 -9 -10 -15 -22 -16 -18 0 -15 -5 17
-20 22 -10 33 -19 25 -19 -26 0 4 -17 42 -23 36 -5 62 6 36 16 -28 10 9 24 54
19 41 -3 50 -8 68 -39 11 -19 23 -54 26 -77 5 -35 2 -43 -16 -54 -12 -8 -19
-9 -15 -3 4 7 -3 7 -20 -1 -20 -9 -28 -9 -34 0 -5 8 -16 9 -36 3 l-30 -9 30
-2 c17 -1 23 -4 15 -7 -35 -11 -59 -27 -54 -35 3 -4 0 -8 -5 -8 -25 0 -9 -20
17 -21 l27 -1 -30 -7 c-18 -4 -29 -13 -27 -21 2 -7 -2 -16 -7 -19 -6 -4 -16
-30 -24 -59 -18 -73 -27 -79 -81 -58 -24 9 -47 24 -50 32 -3 8 -10 12 -16 9
-5 -3 -10 -1 -10 6 0 7 -3 9 -7 6 -3 -4 7 -21 23 -38 l29 -32 -29 19 c-22 14
-28 15 -24 4 5 -15 -32 -40 -58 -40 -8 0 -14 -4 -14 -9 0 -5 -8 -12 -17 -14
-10 -3 40 -5 111 -6 106 -1 133 2 147 15 17 15 19 15 34 0 15 -14 72 -16 551
-16 l534 0 0 745 c0 480 -3 745 -10 745 -5 0 -13 12 -16 26 -4 15 -12 23 -20
20 -8 -3 -11 0 -7 10 8 22 22 17 29 -11 11 -42 21 -28 21 30 0 30 -4 52 -9 49
-4 -3 -8 2 -8 10 0 25 -14 19 -33 -14 -15 -25 -16 -29 -2 -24 8 3 15 1 15 -5
0 -21 -31 -24 -45 -5 -13 17 -11 21 11 38 19 14 22 21 13 27 -8 4 -10 11 -6
16 5 4 12 1 16 -6 7 -10 10 -10 16 -1 6 9 9 9 16 -1 4 -7 11 -10 16 -6 4 5 1
12 -7 17 -10 6 -11 12 -2 22 8 10 11 273 12 950 0 852 -1 936 -16 942 -21 8
-26 8 -20 -3 7 -11 -39 -20 -55 -11 -8 6 -6 10 7 13 10 3 2 4 -18 3 -21 -2
-38 0 -38 4 0 10 -40 25 -55 21 -18 -5 -130 -4 -145 2 -67 24 -97 29 -180 33
-52 3 -102 6 -110 8 -8 1 -27 -1 -41 -4z m-234 -1070 c-33 -5 -76 -11 -95 -14
-28 -5 -26 -3 10 8 25 8 68 14 95 14 l50 -1 -60 -7z m160 -10 c25 -11 -1 -11
-35 0 -20 6 -21 8 -5 8 11 0 29 -3 40 -8z m-425 -85 c-7 -8 -17 -15 -23 -15
-6 0 -2 7 9 15 25 19 30 19 14 0z m94 -69 c-10 -8 -21 -12 -24 -10 -5 6 21 24
34 24 6 0 1 -6 -10 -14z m570 -29 c12 -9 16 -20 12 -34 -6 -18 -10 -19 -60
-10 -54 10 -54 10 -39 34 17 26 58 31 87 10z m5 -288 c78 -29 155 -83 209
-147 26 -30 59 -68 73 -83 15 -16 24 -31 21 -34 -3 -3 0 -5 7 -5 8 0 11 -7 7
-15 -3 -9 0 -15 9 -15 9 0 12 -6 8 -15 -3 -9 -2 -15 3 -14 21 4 28 -2 14 -11
-13 -9 -13 -10 0 -10 21 0 44 -37 27 -43 -7 -3 -4 -6 7 -6 12 -1 16 -6 12 -16
-5 -13 -1 -12 19 2 13 10 25 21 25 26 0 4 5 7 11 7 5 0 8 -4 5 -9 -4 -5 0 -11
6 -14 7 -2 9 -8 5 -13 -4 -5 -11 -3 -15 3 -9 14 -35 -3 -45 -29 -4 -12 -2 -15
9 -11 7 3 14 0 14 -6 0 -6 -2 -11 -4 -11 -2 0 -11 -3 -20 -6 -10 -4 -16 -1
-16 8 0 23 -50 89 -62 82 -7 -5 -9 0 -5 15 3 14 0 24 -9 28 -8 3 -14 15 -14
27 0 15 -3 17 -9 8 -6 -10 -12 -6 -25 14 -10 14 -12 23 -5 19 8 -5 10 -4 5 3
-4 7 -14 12 -22 12 -8 0 -13 4 -10 9 3 5 -10 21 -29 35 -19 15 -35 35 -35 45
0 14 -49 61 -65 61 -2 0 -24 18 -47 40 -24 22 -52 43 -63 46 -23 8 -72 44 -59
44 5 0 33 -9 63 -21z m-59 -69 c0 -4 -9 -6 -21 -3 -15 4 -17 8 -8 14 14 8 29
3 29 -11z m130 -54 c0 -9 -30 -14 -35 -6 -4 6 3 10 14 10 12 0 21 -2 21 -4z
m51 -33 c5 -26 3 -30 -10 -25 -9 3 -20 12 -24 19 -5 7 -14 10 -20 7 -7 -4 -3
2 8 14 26 27 38 23 46 -15z m-183 -9 c50 -4 75 -10 79 -20 3 -8 12 -14 20 -14
8 0 21 -7 30 -15 8 -9 20 -14 26 -12 16 5 60 -44 49 -55 -6 -6 -15 -3 -25 6
-9 9 -18 16 -21 16 -3 0 -38 15 -78 34 -77 36 -162 56 -235 56 -24 0 -42 4
-39 9 6 9 31 8 194 -5z m247 -124 c3 -5 -3 -10 -15 -10 -12 0 -18 5 -15 10 3
6 10 10 15 10 5 0 12 -4 15 -10z m195 -14 c0 -3 -4 -8 -10 -11 -5 -3 -10 -1
-10 4 0 6 5 11 10 11 6 0 10 -2 10 -4z m30 -6 c0 -5 -5 -10 -11 -10 -5 0 -7 5
-4 10 3 6 8 10 11 10 2 0 4 -4 4 -10z m-200 -6 c0 -8 -19 -13 -24 -6 -3 5 1 9
9 9 8 0 15 -2 15 -3z m250 -20 c0 -3 -7 -12 -15 -21 -20 -19 -32 -10 -14 11
14 15 29 21 29 10z m-50 -18 c0 -3 -4 -8 -10 -11 -5 -3 -10 -1 -10 4 0 6 5 11
10 11 6 0 10 -2 10 -4z m-1544 -31 c17 -13 16 -14 -18 -8 -21 3 -44 2 -51 -3
-7 -5 -4 -1 6 9 23 21 37 21 63 2z m1554 1 c0 -3 -4 -8 -10 -11 -5 -3 -10 -1
-10 4 0 6 5 11 10 11 6 0 10 -2 10 -4z m70 -6 c0 -5 -4 -10 -10 -10 -5 0 -10
5 -10 10 0 6 5 10 10 10 6 0 10 -4 10 -10z m-6 -106 c9 -23 7 -34 -5 -34 -6 0
-9 7 -5 15 3 8 1 15 -4 15 -6 0 -10 5 -10 10 0 16 17 12 24 -6z m-2317 -150
c-3 -3 -12 -4 -19 -1 -8 3 -5 6 6 6 11 1 17 -2 13 -5z m1266 -879 c-10 -8 -20
-11 -23 -8 -3 3 1 8 8 10 6 3 10 9 7 14 -4 5 1 6 10 3 14 -6 14 -8 -2 -19z
m72 -44 c3 -5 1 -12 -5 -16 -5 -3 -10 1 -10 9 0 18 6 21 15 7z"/>
<path d="M4505 1890 c3 -5 8 -10 11 -10 2 0 4 5 4 10 0 6 -5 10 -11 10 -5 0
-7 -4 -4 -10z"/>
<path d="M2800 3581 c0 -5 7 -15 17 -22 15 -13 15 -12 4 9 -12 23 -21 28 -21
13z"/>
<path d="M1449 3575 c-18 -27 -17 -100 0 -205 11 -63 16 -119 12 -125 -5 -5
-9 -34 -10 -63 -2 -47 0 -53 16 -50 16 3 18 16 20 98 2 52 -2 122 -7 155 -6
33 -14 92 -18 130 -4 39 -10 66 -13 60z"/>
<path d="M2936 3540 c2 -24 9 -49 14 -54 14 -14 11 22 -5 64 l-14 35 5 -45z"/>
<path d="M2818 3528 c-6 -16 12 -64 39 -111 13 -21 26 -50 30 -65 3 -15 17
-44 30 -65 21 -33 28 -38 56 -35 26 2 31 7 29 23 -4 23 -41 105 -48 105 -12 0
-21 -46 -12 -57 6 -8 6 -13 1 -13 -16 0 -33 23 -33 45 0 16 2 17 10 5 8 -12
10 -9 10 12 0 15 -4 30 -10 33 -6 3 -7 -1 -4 -9 3 -9 2 -16 -3 -16 -4 0 -19
25 -32 55 -13 30 -28 55 -32 55 -5 0 -9 9 -9 19 0 23 -16 37 -22 19z"/>
<path d="M2891 3494 c0 -11 3 -14 6 -6 3 7 2 16 -1 19 -3 4 -6 -2 -5 -13z"/>
<path d="M3130 3496 c0 -2 9 -6 20 -9 11 -3 18 -1 14 4 -5 9 -34 13 -34 5z"/>
<path d="M2901 3454 c0 -11 3 -14 6 -6 3 7 2 16 -1 19 -3 4 -6 -2 -5 -13z"/>
<path d="M3085 3438 c-4 -10 -11 -15 -16 -12 -14 8 -11 -24 6 -56 l15 -29 26
25 c21 22 23 28 11 37 -8 7 -19 21 -25 32 -10 18 -11 19 -17 3z"/>
<path d="M2237 3428 c-67 -14 -128 -71 -120 -112 3 -16 14 -31 24 -33 11 -3
19 -9 19 -14 0 -21 5 -25 48 -47 52 -26 72 -23 72 12 0 26 49 74 59 58 3 -5
13 -12 21 -15 12 -4 11 -6 -2 -6 -24 -1 -23 -33 0 -54 27 -25 60 -21 92 11 27
28 29 28 44 11 12 -15 28 -18 71 -16 42 1 51 4 35 11 -11 5 -22 16 -25 25 -7
21 -83 78 -116 86 -21 5 -26 11 -21 27 3 13 1 19 -5 15 -5 -3 -25 4 -44 17
-43 29 -91 36 -152 24z m231 -108 c44 -27 40 -32 -10 -14 -24 9 -58 16 -75 15
-18 0 -33 4 -33 9 0 18 84 11 118 -10z m-198 -94 c0 -3 -4 -8 -10 -11 -5 -3
-10 -1 -10 4 0 6 5 11 10 11 6 0 10 -2 10 -4z"/>
<path d="M2990 3385 c1 -6 7 -21 16 -35 l15 -25 -7 25 c-7 26 -24 52 -24 35z"/>
<path d="M3040 3371 c0 -19 26 -48 35 -39 6 6 -18 58 -27 58 -5 0 -8 -8 -8
-19z"/>
<path d="M1617 3346 c-43 -22 -63 -38 -67 -57 -8 -27 11 -64 25 -51 5 4 4 -2
0 -13 -5 -11 -9 -41 -10 -66 0 -44 1 -46 27 -47 15 0 30 4 33 9 4 5 15 9 26 9
16 0 17 3 7 19 -9 15 -9 25 0 45 13 30 32 34 32 8 0 -48 54 -77 98 -53 22 12
88 -2 85 -17 -2 -7 3 -12 11 -12 7 0 21 19 30 43 28 73 16 177 -19 177 -9 0
-28 6 -44 14 -15 8 -60 17 -101 19 -67 4 -78 2 -133 -27z"/>
<path d="M3170 3360 c-13 -24 12 -80 36 -80 12 0 14 8 9 38 -12 69 -24 81 -45
42z"/>
<path d="M2896 3287 c3 -10 9 -15 12 -12 3 3 0 11 -7 18 -10 9 -11 8 -5 -6z"/>
<path d="M3105 3161 c-8 -27 3 -66 25 -86 40 -36 56 25 19 76 -24 34 -35 36
-44 10z"/>
<path d="M1658 3103 c6 -2 18 -2 25 0 6 3 1 5 -13 5 -14 0 -19 -2 -12 -5z"/>
<path d="M1775 3039 c-33 -21 -69 -39 -80 -39 -15 0 -17 -2 -6 -9 21 -14 97
18 133 56 42 43 27 41 -47 -8z"/>
<path d="M2280 2844 c0 -3 25 -32 56 -65 37 -38 73 -65 103 -76 62 -23 89 -41
107 -72 l15 -26 -7 25 c-8 31 -51 89 -72 97 -13 6 -13 8 4 14 15 6 12 8 -13 8
-18 1 -33 5 -33 10 0 5 -13 11 -28 14 -15 3 -51 22 -80 41 -29 20 -52 34 -52
30z"/>
<path d="M2109 2815 c-9 -8 -193 -33 -226 -30 -27 2 -33 -1 -33 -15 0 -11 -8
-24 -17 -29 -10 -6 -15 -11 -10 -11 12 0 -22 -61 -56 -99 -29 -35 -57 -89 -57
-113 0 -7 11 5 23 27 34 59 127 195 133 195 12 0 69 -53 67 -62 -4 -13 15 -9
19 4 3 8 11 9 24 3 10 -5 41 -9 67 -10 l49 -1 -5 34 c-5 28 -2 34 19 42 17 7
31 6 44 -2 14 -9 25 -9 44 0 32 14 33 25 4 52 -20 18 -77 28 -89 15z"/>
<path d="M2405 2590 c-8 -24 -60 -39 -140 -38 -33 0 -78 -5 -100 -12 -82 -24
-101 -26 -142 -17 -34 7 -52 4 -105 -17 -37 -15 -84 -26 -111 -26 -35 0 -47
-4 -47 -15 0 -9 10 -15 26 -15 14 0 23 -4 19 -10 -8 -13 18 -13 31 0 8 8 19 8
38 0 35 -13 46 -13 46 1 0 6 -8 8 -17 5 -17 -6 -17 -5 0 8 9 7 41 16 70 20 28
3 115 17 192 32 77 14 164 29 192 34 55 9 153 49 153 62 0 5 -22 8 -49 8 -41
0 -51 -4 -56 -20z"/>
<path d="M1826 2266 c3 -9 11 -16 16 -16 13 0 5 23 -10 28 -7 2 -10 -2 -6 -12z"/>
<path d="M1754 2245 c-9 -19 -9 -28 3 -42 14 -17 14 -17 10 5 -4 18 -2 22 13
17 11 -3 20 0 24 10 3 8 1 15 -4 15 -6 0 -10 -5 -10 -11 0 -5 -5 -7 -11 -4 -6
4 -8 13 -5 21 9 24 -8 15 -20 -11z"/>
<path d="M1760 2166 c0 -2 7 -6 15 -10 8 -3 15 -1 15 4 0 6 -7 10 -15 10 -8 0
-15 -2 -15 -4z"/>
<path d="M2125 1800 c-3 -5 -1 -10 6 -10 8 0 5 -5 -5 -13 -16 -12 -15 -15 23
-40 59 -39 84 -36 44 6 -16 17 -33 40 -36 50 -7 19 -22 22 -32 7z"/>
<path d="M2160 1711 c0 -6 -1 -14 -2 -18 -2 -3 5 -7 15 -9 21 -3 22 9 2 26
-10 9 -15 9 -15 1z"/>
<path d="M2515 1510 c3 -5 8 -10 11 -10 2 0 4 5 4 10 0 6 -5 10 -11 10 -5 0
-7 -4 -4 -10z"/>
<path d="M2361 1437 c2 -1 11 -8 20 -15 13 -9 16 -9 16 3 0 8 -9 15 -20 15
-11 0 -18 -1 -16 -3z"/>
<path d="M3501 333 c-8 -3 8 -15 40 -29 49 -20 55 -21 61 -6 4 9 7 20 7 23 1
9 -33 7 -40 -3 -7 -11 -41 1 -33 13 6 10 -13 11 -35 2z"/>
<path d="M3495 292 c6 -5 24 -13 40 -16 19 -5 26 -4 20 2 -5 5 -23 13 -40 16
-19 5 -26 4 -20 -2z"/>
<path d="M3545 261 c-11 -5 -23 -7 -27 -4 -5 2 -8 0 -8 -5 0 -6 7 -13 16 -16
8 -3 12 -2 9 4 -3 5 7 8 21 7 15 -1 29 4 31 11 5 13 -12 15 -42 3z"/>
<path d="M575 215 c-5 -2 -23 -6 -39 -10 -27 -6 -28 -8 -23 -50 l5 -45 -37 41
-36 40 -90 6 c-115 6 -131 -3 -128 -76 2 -48 1 -51 -23 -51 -31 0 -73 -21 -98
-49 l-19 -21 891 0 c491 0 892 2 892 5 0 3 -19 17 -41 31 -35 22 -60 28 -153
36 -61 5 -138 16 -171 25 -99 25 -279 61 -467 93 -141 24 -205 30 -315 29 -76
0 -142 -2 -148 -4z"/>
<path d="M3536 191 c-3 -5 1 -14 9 -21 12 -10 15 -10 15 3 0 19 -16 31 -24 18z"/>
<path d="M3418 133 c7 -3 16 -2 19 1 4 3 -2 6 -13 5 -11 0 -14 -3 -6 -6z"/>
</g>
</svg>
